<svg preserveAspectRatio="none" width="100%" height="100%" overflow="visible" style="display: block;" viewBox="0 0 17.5 23.75" fill="none" xmlns="http://www.w3.org/2000/svg">
<g id="Container">
<path id="Icon" d="M7.5 23.75C5.41667 23.75 3.64583 23.0208 2.1875 21.5625C0.729167 20.1042 0 18.3333 0 16.25V8.75L6.25 15L4.5 16.7812L2.5 14.7812V16.25C2.5 17.625 2.98958 18.8021 3.96875 19.7812C4.94792 20.7604 6.125 21.25 7.5 21.25C8.875 21.25 10.0521 20.7604 11.0312 19.7812C12.0104 18.8021 12.5 17.625 12.5 16.25V12.2812C11.75 11.9896 11.1458 11.526 10.6875 10.8906C10.2292 10.2552 10 9.54167 10 8.75C10 7.95833 10.2292 7.24479 10.6875 6.60938C11.1458 5.97396 11.75 5.51042 12.5 5.21875V0H15V5.21875C15.75 5.51042 16.3542 5.97396 16.8125 6.60938C17.2708 7.24479 17.5 7.95833 17.5 8.75C17.5 9.54167 17.2708 10.2604 16.8125 10.9062C16.3542 11.5521 15.75 12.0104 15 12.2812V16.25C15 18.3333 14.2708 20.1042 12.8125 21.5625C11.3542 23.0208 9.58333 23.75 7.5 23.75V23.75M13.75 10C14.1042 10 14.401 9.88021 14.6406 9.64062C14.8802 9.40104 15 9.10417 15 8.75C15 8.39583 14.8802 8.09896 14.6406 7.85938C14.401 7.61979 14.1042 7.5 13.75 7.5C13.3958 7.5 13.099 7.61979 12.8594 7.85938C12.6198 8.09896 12.5 8.39583 12.5 8.75C12.5 9.10417 12.6198 9.40104 12.8594 9.64062C13.099 9.88021 13.3958 10 13.75 10V10M13.75 8.75V8.75V8.75V8.75V8.75V8.75V8.75V8.75V8.75V8.75" fill="var(--fill-0, #C26B38)"/>
</g>
</svg>
