<svg xmlns="http://www.w3.org/2000/svg" fill="none" viewBox="0 0 650 654">
  <circle cx="324.5" cy="326.5" r="324.5" fill="#e9eceb" />
  <path fill="#246051"
    d="m329.068 109.261 2.368-.017c13.191-.068 26.093.47 38.819 4.267q3.215.587 6.438 1.125c37.533 7.067 72.514 27.18 100.347 52.848 1.967 1.8 3.98 3.508 6.028 5.214 30.277 26.57 49.209 62.989 61.187 100.813l.799 2.452c2.009 6.358 3.252 12.724 4.326 19.298l.512 3.035q.689 4.106 1.363 8.215l.54 2.666c.642 4.65.662 9.253.698 13.943l.03 3.126c.223 29.393-1.415 55.564-10.457 83.72a252 252 0 0 0-1.987 6.568c-9.115 30.03-27.594 58.02-49.333 80.439a602 602 0 0 0-4.42 4.624c-6.582 6.845-13.594 12.863-21.213 18.525q-1.847 1.38-3.67 2.793c-18.547 14.377-40.788 25.65-63.188 32.596l-3.703 1.156a334 334 0 0 1-10.297 2.844l-3.715 1.023c-10.638 2.867-21.369 4.558-32.285 5.977l-2.977.406c-8.767 1.002-17.665.763-26.475.631a400 400 0 0 0-4.647-.043c-52.964-.27-105.701-25.439-143.901-60.994q-2.342-2.034-4.688-4.063c-4.16-3.702-7.736-7.679-11.312-11.937l-2.457-2.762c-24.817-28.094-42.75-64.709-49.781-101.484-.55-3.548-.55-3.548-1.762-5.754-8.843-40.18-5.111-93.27 13.985-129.927 1.115-2.278 2.028-4.589 2.937-6.956 2.051-5.232 4.589-10.09 7.328-14.992.485-.872.97-1.744 1.468-2.643 3.782-6.734 7.775-13.202 12.282-19.482l2.176-3.04a191 191 0 0 1 13.71-16.663 226 226 0 0 0 5.551-6.297c35.429-40.478 90.954-66.892 144.372-70.723 8.328-.446 16.667-.492 25.004-.527" />
  <path fill="#fafbfb"
    d="M386.642 129.331c3.615 1.18 7.248 2.153 10.926 3.118 6.713 1.917 12.542 4.798 18.687 8.062q1.92.949 3.848 1.883c13.781 6.69 26.205 14.55 38.152 24.117l2.805 2.215c40.771 32.675 67.982 78.18 77.195 129.785l.41 2.088c7.32 37.877 2.406 78.827-10.41 114.912-4.426-4.138-7.894-8.723-11.438-13.625l-3.734-5.117-1.92-2.64c-3.014-4.136-6.056-8.251-9.096-12.368a5092 5092 0 0 1-11.243-15.3 1961 1961 0 0 0-15.569-20.95l-4.443-5.923-4.666-6.222q-2.55-3.399-5.094-6.804a2790 2790 0 0 0-15.11-19.988l-2.104-2.767-2.009-2.636-1.889-2.48a209 209 0 0 0-4.165-5.184c-1.52-1.996-1.52-1.996-1.52-3.996-3.088-.446-5.017-.687-8 0-2.864 2.342-4.832 5.228-6.938 8.25l-1.832 2.497a472 472 0 0 0-3.598 4.975 215 215 0 0 1-4.218 5.688 511 511 0 0 0-6.414 8.59l-1.28 1.685a406 406 0 0 0-3.908 5.252l-2.355 3.153c-1.743 2.75-1.743 2.75-1 5.375 1.952 3.207 4.133 6.188 6.418 9.16 6.167 8.193 11.592 16.805 16.97 25.528a195 195 0 0 0 3.155 4.847v3c-3.063.625-3.063.625-7 0-2.886-2.934-4.84-6.516-7-10a468 468 0 0 0-3.7-5.36c-6.72-9.633-13.193-19.435-19.691-29.219q-2.715-4.085-5.437-8.163-1.165-1.748-2.324-3.498a690 690 0 0 0-7.54-11.104l-1.939-2.834a592 592 0 0 0-3.812-5.504c-3.299-4.846-5.475-8.39-5.557-14.318 1.45-5.8 4.237-8.784 9.055-12.246 10.363-6.171 21.919-9.445 33.468-12.625 10.032-2.782 19.715-5.877 27.477-13.129 1.67-3.34 1.983-6.447 1-10-5.677-6.306-15.211-8.48-23-11l-3.246-1.133c-2.756-.868-4.886-1.036-7.754-.867-.094 1.96-.094 1.96 1 4a62 62 0 0 0 7.563 2.438c6.162 1.76 11.428 3.388 16.437 7.562.813 2.563.813 2.563 0 5-9.354 8.762-25.953 10.634-38.125 13.563-17.478 3.74-17.478 3.74-34.047 10.056-2.828 1.381-2.828 1.381-5.828 1.381-1.583-2.2-2.951-4.354-4.313-6.688q-1.323-2.193-2.656-4.382l-1.457-2.396c-2.858-4.6-5.874-9.096-8.886-13.596l-1.777-2.665a558 558 0 0 0-3.374-4.984 89 89 0 0 1-2.82-4.464c-1.28-2.203-1.28-2.203-3.717-4.825-3.535-1.031-3.535-1.031-7 0-2.396 2.202-2.396 2.202-4.188 5.375-3.322 5.331-6.75 10.582-10.246 15.8l-3.197 4.786-1.674 2.503q-4.254 6.368-8.5 12.743l-3.52 5.28-1.774 2.662-3.541 5.311-15.86 23.792c-5.279 7.921-10.56 15.84-15.853 23.752q-3.56 5.32-7.117 10.646a4983 4983 0 0 1-3.582 5.352 6933 6933 0 0 0-5.339 7.986l-1.725 2.57c-2.696 4.04-5.307 8.1-7.757 12.295l-1.346 2.277q-1.23 2.1-2.398 4.234c-1.093 1.863-1.093 1.863-3.383 4.636-3.282.42-3.282.42-6 0-.71-1.656-.71-1.656-1-4 1.336-2.594 1.336-2.594 3.375-5.5l2.203-3.219c1.594-2.22 3.238-4.23 5.031-6.312 4.78-5.383 4.78-5.383 6.582-12.11-.498-3.075-1.233-5.897-2.191-8.859a365 365 0 0 1-1.125-4.5l-.875-3.5v-4l-3.176 1.348-4.137 1.715-2.091.892c-5.256 2.158-5.256 2.158-8.596 1.045q5.142-6.997 10.3-13.98a961 961 0 0 0 6.493-8.883l2.332-3.2 2.008-2.785c1.86-2.144 3.25-3.123 5.867-4.152 10.558 12.485 10.558 12.485 15 19 2.96-2.755 5.037-5.466 7-9h-2a141 141 0 0 1-5.313-6.563l-1.435-1.845a462 462 0 0 1-4.252-5.592l-1.47-1.957c-3.53-4.798-3.53-4.798-3.53-7.043l-9-1-2.273 3.262c-5.896 8.426-11.91 16.7-18.234 24.812-3.147 4.06-6.255 8.151-9.368 12.238l-2.092 2.746a3193 3193 0 0 0-16.597 22.023q-3.714 4.962-7.436 9.919l-3.012 4.016-5.883 7.843-1.454 1.94-2.925 3.896a2367 2367 0 0 0-8.64 11.582l-2.024 2.723a1624 1624 0 0 0-3.9 5.264c-3.153 4.233-6.297 8.136-10.162 11.737-3.187-8.17-5.223-16.427-7-25l-.569-2.676c-2.746-13.322-3.792-26.322-3.743-39.886l.007-2.128c.09-14.298.528-28.529 3.493-42.56l.668-3.223c3.574-16.707 8.755-32.137 16.144-47.528l.977-2.077c6.653-14.126 14.608-27.057 24.148-39.423l1.702-2.21c3.54-4.492 7.32-8.572 11.433-12.546 1.936-1.873 1.936-1.873 4.115-4.744l1.625-2h2v-2c2.415-2.582 5.286-4.741 8-7l1.643-1.405c10.485-8.966 21.47-16.6 33.357-23.595l1.98-1.167c15.257-8.866 32.036-15.153 49.02-19.833l1.968-.546c37.34-10.117 78.58-9.749 115.419 2.366" />
  <path fill="#1a4d43"
    d="M391.255 8.511q2.492.48 5 .875c14.989 2.687 29.022 7.83 43.256 13.11q3.28 1.213 6.572 2.394c31.163 11.466 59.646 29.575 85.172 50.621l1.772 1.46c8.182 6.785 15.822 13.917 23.228 21.54a514 514 0 0 0 7.14 7.07c5.775 5.625 10.9 11.58 15.86 17.93l1.323 1.681c24.1 30.782 43.102 64.957 54.677 102.319l.702 2.205c6.1 19.156 9.905 38.852 12.298 58.795l.27 2.241c.715 6.496.89 12.919.898 19.45l.01 3.343q.007 3.495.007 6.991c.002 3.476.02 6.95.04 10.426.052 19.924-.324 40.072-4.913 59.549l-.782 3.481c-4.825 20.994-10.428 41.956-19.53 61.519l-1.257 2.716c-14.907 32.025-32.38 60.627-56.4 86.721a292 292 0 0 0-5.968 6.75c-5.956 6.836-12.498 12.924-19.375 18.813l-3.055 2.684c-33.912 29.675-73.22 50.533-115.89 64.628-1.824.61-3.638 1.253-5.45 1.899-12.177 4.147-24.702 6.137-37.367 8.24a519 519 0 0 0-9.004 1.623c-27.537 5.024-57.54 4.528-85.234.926l-2.8-.357c-8.431-1.094-16.8-2.243-25.089-4.156a287 287 0 0 0-5.724-1.24c-9.467-2.07-18.658-4.795-27.887-7.747l-3.615-1.15c-5.727-1.862-11.283-3.836-16.744-6.377-2.26-1.027-4.548-1.925-6.864-2.817-6.405-2.54-12.552-5.58-18.714-8.656l-1.852-.924c-15.086-7.556-29.322-16.285-42.711-26.576-.54-.41-1.079-.821-1.634-1.245-7.269-5.547-14.231-11.28-20.932-17.505a187 187 0 0 0-6.247-5.5c-9.164-7.995-17.666-16.726-25.199-26.27-1.81-2.259-3.701-4.364-5.675-6.48-11.694-13.065-21.285-28.023-30.313-43l-1.213-1.984C13.135 440.944.06 383.5.005 328.199L0 325.491c-.001-12.24.402-24.361 1.63-36.543l.382-3.792c.673-6.056 1.674-11.764 3.243-17.645q.42-3.057.75-6.125c6.215-44.203 28.915-89.405 55.25-124.875l1.65-2.229c5.832-7.836 11.74-15.509 18.397-22.67 1.754-1.887 3.418-3.819 5.078-5.788 8.255-9.446 17.283-18.383 27.14-26.14 2.548-2.025 5.007-4.119 7.464-6.25a188 188 0 0 1 19.54-14.77c1.75-1.166 3.477-2.36 5.204-3.559 20.026-13.664 42.566-25.764 65.527-33.594l3.56-1.22c4.013-1.37 8.037-2.705 12.065-4.03l3.79-1.252C278.971-.467 342.227-6.168 391.255 8.511m-232 65-2.196 1.455c-8.658 5.753-16.888 11.794-24.804 18.545L129.208 96c-7.643 6.299-14.743 13.093-21.765 20.075l-2.64 2.612c-23.501 23.612-41.701 53.123-56.11 83.012l-1.23 2.535c-2.276 4.844-3.991 9.63-5.444 14.777-.777 2.544-1.715 4.954-2.733 7.411-2.218 5.408-3.913 10.914-5.531 16.527l-.917 3.18c-3.708 13.084-6.38 26.169-8.27 39.633l-.363 2.577c-5.78 43.981-2.11 91.402 13.05 133.173l1.16 3.26c13.455 37.586 32.346 72.784 59.574 102.263a295 295 0 0 1 5.547 6.27c9.317 10.67 19.525 20.53 30.719 29.207l2.977 2.457c37.615 30.897 82.053 48.895 129.023 59.543l2.493.567c16.703 3.743 33.089 4.763 50.144 4.694 3.095-.01 6.19 0 9.285.012 18.949.014 37.5-1.485 56.078-5.273l2.437-.479c23.175-4.612 45.32-12.213 66.563-22.521l2.682-1.273c13.383-6.36 26.028-13.447 38.318-21.727l1.968-1.324c8.832-6.003 16.992-12.657 25.032-19.676l2.238-1.934a658 658 0 0 0 5.762-5.066l2.426-2.145c8.06-7.18 15.59-14.623 22.574-22.855l2.309-2.68c16.901-19.882 30.041-42.03 41.691-65.32l1.156-2.271c13.687-26.983 21.194-55.958 25.402-85.79q.432-2.882.986-5.742c1.874-10.121 1.758-20.222 1.717-30.477-.01-3.12 0-6.239.012-9.359.014-17.69-.674-35.435-4.648-52.736l-.664-3.028a816 816 0 0 0-1.961-8.597l-.54-2.336c-3.22-13.784-6.81-27.658-12.46-40.664l-1.336-3.188c-14.375-34.073-33.196-67.305-60.059-93.21-1.777-1.774-3.406-3.635-5.043-5.54-6.855-7.904-14.394-14.54-22.562-21.062q-1.827-1.495-3.652-2.992c-7.184-5.869-14.404-11.194-22.348-16.008a754 754 0 0 1-3.426-2.223c-11.432-7.406-23.404-13.674-35.574-19.777l-2.282-1.147c-8.358-4.162-16.735-7.302-25.718-9.853a301 301 0 0 1-4.313-1.438l-2.156-.718q-2.971-.992-5.937-2c-9.927-3.29-19.913-5.488-30.19-7.39q-3.708-.705-7.404-1.466c-73.55-14.685-154.04 3.646-216 45.012" />
  <path fill="#6ba1a7"
    d="M393.255 408.511c24.357-.111 48.662-.078 73 1l.715 1.832c2.783 7.056 5.856 13.95 9.017 20.844 1.773 3.895 3.477 7.776 4.956 11.793 1.148 3.428 1.148 3.428 2.75 5.906 1.884 3.166 3.12 6.424 4.437 9.86 1.577 3.877 3.465 7.592 5.367 11.32.758 2.445.758 2.445.258 4.363-2.216 3.075-4.763 5.779-7.375 8.52-2.863 3.026-5.689 6.015-8.29 9.273-1.668 2.081-3.311 3.75-5.335 5.476l-2.102 1.793-2.398 2.02-2.836 2.426c-17.206 14.574-17.206 14.574-22.164 14.574v2c-9.238 5.428-18.604 10.472-28.255 15.13-1.635.815-3.23 1.71-4.82 2.608-15.408 6.645-46.48-5.421-60.925-10.738a527 527 0 0 1-8.879-3.723c-3.277-1.34-6.585-2.503-9.933-3.652-11.258-3.967-21.795-9.414-32.427-14.787-4.709-2.36-9.475-4.455-14.363-6.424-5.396-2.245-10.703-4.688-16.018-7.117a236 236 0 0 0-30.238-11.334 782 782 0 0 1-5.824-1.783c-12.827-3.907-25.057-5.523-38.421-5.44-2.093.01-4.185 0-6.278-.013-7.436-.008-14.398.447-21.619 2.273-3.625.75-3.625.75-7 0-3.231-2.899-5.569-6.434-8-10l-1.397-1.999c-18.603-26.658-18.603-26.658-18.603-33.001 17.78-10.064 37.685-14.413 58.063-14.313l3.567.013c10.034.129 19.568 1.226 29.37 3.3l2.03.406c21.364 4.31 41.806 11.664 61.856 20.065 8.526 3.557 17.126 6.93 25.718 10.323q4.256 1.681 8.511 3.368c16.37 6.51 16.37 6.51 33.072 12.088l3.356 1.016 2.457.734v-6h3l1 7h3l.839-2.164c1.146-2.8 2.411-5.495 3.743-8.211l1.558-3.196 1.673-3.429c7.047-14.526 13.661-29.233 20.187-44" />
  <path fill="#dce0db"
    d="M393.255 408.511c24.357-.111 48.662-.078 73 1l.715 1.832c2.783 7.056 5.856 13.95 9.017 20.844 1.773 3.895 3.477 7.776 4.956 11.793 1.148 3.428 1.148 3.428 2.75 5.906 1.884 3.166 3.12 6.424 4.437 9.86 1.577 3.877 3.465 7.592 5.367 11.32.758 2.445.758 2.445.145 4.445-8.381 12.088-8.381 12.088-14.887 13.563a79 79 0 0 1-4.5.437q-2.469.278-4.938.563l-2.214.19c-1.94.157-1.94.157-3.848 1.247-23.267 3.512-50.296 1.844-72.719-5.047-3.519-1.022-6.977-1.62-10.593-2.203-14.189-2.394-27.959-7.469-41.568-12.04q-3.29-1.098-6.585-2.175l-4.472-1.472-2.225-.725c-11.332-3.744-22.233-8.6-33.205-13.272-18.752-7.964-37.523-15.03-57.196-20.377-2.436-.689-4.836-1.46-7.246-2.236-11.074-3.297-22.155-3.801-33.619-3.769-2.306.003-4.61-.02-6.916-.045-13.454-.059-26.986 1.216-39.531 6.423l-2.004.776c-2.957 1.167-5.465 2.392-8.121 4.162-2-.063-2-.063-4-1-3-4.179-3-4.179-3-7 17.78-10.064 37.685-14.413 58.063-14.313l3.567.013c10.034.129 19.568 1.226 29.37 3.3l2.03.406c21.364 4.31 41.806 11.664 61.856 20.065 8.526 3.557 17.126 6.93 25.718 10.323q4.256 1.681 8.511 3.368c16.37 6.51 16.37 6.51 33.072 12.088l3.356 1.016 2.457.734v-6h3l1 7h3l.839-2.164c1.146-2.8 2.411-5.495 3.743-8.211l1.558-3.196 1.673-3.429c7.047-14.526 13.661-29.233 20.187-44" />
  <path fill="#4a7a85"
    d="m223.255 476.511 2.37.667a563 563 0 0 1 15.366 4.63c1.981.615 3.974 1.195 5.967 1.77 7.126 2.056 13.645 4.79 20.323 8 4.047 1.913 8.14 3.727 12.224 5.558l2.508 1.128c4.739 2.13 4.739 2.13 9.489 4.237 5.764 2.538 11.45 5.223 17.128 7.947l5.574 2.657q4.257 2.025 8.508 4.062c4.92 2.309 9.734 4.075 14.965 5.54 2.848.888 5.526 2 8.265 3.179 16.882 7.152 34.206 11.194 52.407 13.133 2.906.492 2.906.492 5.906 2.492-46.966 16.976-105.637 21.946-152.5 1.063l-2.172-1.024c-2.65-1.182-5.345-2.128-8.078-3.101-6.275-2.381-12.178-5.335-18.125-8.438l-2.702-1.403c-4.499-2.383-8.697-4.887-12.779-7.928-1.685-1.198-3.404-2.212-5.21-3.216-11.594-6.595-20.92-16.126-30.309-25.453l-1.666-1.643a651 651 0 0 1-4.701-4.7l-2.777-2.788c-1.981-2.369-1.981-2.369-1.981-5.369l-3-1c20.06-5.076 45.057-5.641 65 0" />
  <path fill="#ca854f"
    d="M393.255 408.511c24.357-.111 48.662-.078 73 1l.715 1.832c2.783 7.056 5.856 13.95 9.017 20.844 1.773 3.895 3.477 7.776 4.956 11.793 1.148 3.428 1.148 3.428 2.75 5.906 1.883 3.164 3.118 6.422 4.44 9.852 1.586 3.922 3.423 7.717 5.267 11.523l.855 2.25-1 2c-2.1.524-4.207 1.032-6.33 1.46-2.707.547-5.383 1.182-8.068 1.83-15.428 3.522-30.766 5.101-46.602 3.71-1-1-1-1-1.098-4.16l.035-3.903.028-3.91.035-3.027-3 1-1 11c-2.47-2.47-3.485-3.607-4.875-6.57l-1.03-2.18-1.095-2.375-1.163-2.492c-3.288-7.095-6.481-14.234-9.65-21.383l-1.38-3.106c-2.522-5.74-4.828-11.502-6.895-17.421-1.213-3.288-2.667-6.438-4.178-9.598-.734-1.875-.734-1.875-.734-4.875z" />
  <path fill="#dadfdb"
    d="m223.255 466.511 2.168.456c13.08 2.786 25.134 7.72 37.422 12.923 4.2 1.764 8.4 3.324 12.734 4.723a84 84 0 0 1 13.551 5.71q2.04 1.048 4.082 2.094l2.034 1.055a850 850 0 0 0 9.572 4.851l3.253 1.645c3.354 1.625 6.75 3.096 10.184 4.543q2.065.9 4.125 1.813l2.305 1.019c1.87.85 3.728 1.726 5.578 2.617 6.38 3.052 12.636 5.529 19.43 7.489q3.903 1.162 7.75 2.5c20.552 7.159 42.047 11.547 63.812 12.562-7.988 6.145-13.942 8.768-24.164 7.582l-3.836-.582-2.046-.3a206 206 0 0 1-50.833-14.423c-3.277-1.34-6.585-2.503-9.933-3.652-11.258-3.967-21.795-9.414-32.427-14.787-4.709-2.36-9.475-4.455-14.363-6.424-5.396-2.245-10.703-4.688-16.018-7.117a236 236 0 0 0-30.238-11.334 782 782 0 0 1-5.824-1.783c-12.827-3.907-25.057-5.523-38.421-5.44-2.093.01-4.185 0-6.278-.013-6.694-.007-13.083.23-19.615 1.795-3.2.763-5.75.988-9.004.478-2.212-1.83-3.384-3.552-5-6v-2c21.105-8.442 48.225-6.94 70-2" />
  <path fill="#fdfdfd" d="M329.255 121.511c25.384 0 25.384 0 36.125 2.375l3.355.672c4.598.95 8.289 1.837 12.52 3.953v43l-1-2h-3l-2-4h-3l-1 8-42-1z" />
  <path fill="#eceeed"
    d="M308.255 240.511c4.27 1.423 5.55 4.585 7.813 8.25q1.47 2.327 2.945 4.652l1.583 2.504c2.885 4.511 5.868 8.957 8.846 13.406l1.808 2.707q3.755 5.626 7.532 11.235c3.355 4.992 6.592 9.965 9.473 15.246-10.589-2.902-20.83-6.889-31-11l-.625 2.313c-2.89 7.75-7.372 14.802-11.625 21.875l-2.016 3.355-1.734 2.457h-2l-10-20c-4.488 1.496-7.335 2.618-11.18 5.04l-2.812 1.757-2.883 1.828-2.953 1.852q-3.591 2.254-7.172 4.523l-1-2c.826-1.682.826-1.682 2.184-3.727l1.536-2.338 1.717-2.56 1.777-2.687c1.921-2.9 3.854-5.794 5.786-8.688l3.832-5.785a3502 3502 0 0 1 21.606-32.152l2.243-3.306 2.065-3.034c.605-.89 1.21-1.78 1.834-2.695 1.42-2.028 1.42-2.028 2.42-3.028" />
  <path fill="#275950"
    d="M456.962 77.894c5.974 4.213 10.173 9.633 12.293 16.617.774 7.997-1.242 15.938-6.238 22.36-5.299 4.934-12.166 7.958-19.387 8.327-7.406-.47-13.74-3.525-18.75-9-4.616-6.085-7.351-11.37-7.016-19.164a29.96 29.96 0 0 1 8.391-16.523c9.599-6.98 20.003-8.642 30.707-2.617" />
  <path fill="#23544a"
    d="M127.193 152.011c5.661 2.979 9.566 7.638 12.5 13.25 1.804 10.426.724 18.425-5.438 27.25-5.142 5.265-10.895 7.963-18.25 8.375-6.319-.191-12.012-2.007-16.832-6.176-6.163-6.682-8.597-13.04-8.324-22.137 1.077-8.119 5.252-13.589 11.441-18.687 7.146-5 16.825-5.023 24.903-1.875" />
  <path fill="#24564c"
    d="M581.255 204.511a820 820 0 0 1 4.5 10.375l1.3 2.926c3.41 8.062 4.736 15.001 1.7 23.387-2.789 5.596-7.246 9.652-12.79 12.48-3.455 1.06-6.535 1.17-10.148 1.207l-3.87.086c-6.598-.824-10.808-5.013-14.95-9.918-4.828-7.048-7.814-15.07-8.742-23.543 37.524-17 37.524-17 43-17" />
  <path fill="#cf8c56"
    d="M393.255 413.511c2.667 1.334 2.765 2.488 3.813 5.25l1.054 2.734q1.167 3.11 2.328 6.22c1.882 4.994 3.762 9.877 6.242 14.609 2.23 4.283 3.916 8.658 5.563 13.187 2.272 6.239 4.859 12.14 8 18 3 5.793 3 5.793 3 8a213 213 0 0 1-25-3q-2.019-.331-4.04-.656c-9.214-1.513-18.041-3.56-26.96-6.344 1.455-4.706 3.358-9.099 5.484-13.531l1.025-2.16q1.617-3.407 3.241-6.809c4.522-9.485 8.968-18.97 13.032-28.662 1-2.329 2.053-4.589 3.218-6.838" />
  <path fill="#d3874b" d="M416.693 188.074a113 113 0 0 1 5.562 3.437l2.344 1.535c5.868 4.456 8.886 10.375 10.656 17.465v9h-64c0-11.978.378-16.8 8.04-25.14 10.068-9.548 24.708-12.343 37.398-6.297" />
  <path fill="#27584f"
    d="M372.255 51.511c28.365 4.531 28.365 4.531 34 12 .806 3.73.66 7.25 0 11-2.375 3.188-2.375 3.188-5 5h-2l2.5 2.938c2.636 3.692 3.145 6.497 2.848 10.984-.513 3.064-1.243 4.77-3.348 7.078-8.803 5.006-17.077 2.798-26.375.563l-3.02-.698c-7.285-1.705-7.285-1.705-9.605-2.865.734-5.889 1.972-11.597 3.313-17.375l.666-2.903q2.967-12.87 6.021-25.722" />
  <path fill="#26594f"
    d="M542.255 150.511c1.758.066 1.758.066 4 1a69 69 0 0 1 4.875 5.938l1.322 1.778a401 401 0 0 1 3.803 5.284l1.984 2.77c3.105 4.694 4.912 8.486 4.47 14.195-1.032 4.633-3.631 7.272-7.016 10.41-4.783 2.26-9.224 2.302-14.438 1.625-2.336-1.023-2.336-1.023-4-2l-.586 2.16a1043 1043 0 0 1-4.414 15.84c-3.82-1.5-5.89-3.483-8-7 .077-4.055 1.085-7.341 2.563-11.063 1.364-3.457 1.864-6.182 1.437-9.937a84 84 0 0 0-2-4l-1.793 1.242-2.394 1.633-2.356 1.617c-2.425 1.488-4.79 2.532-7.457 3.508q-1.298-1.643-2.563-3.313l-1.44-1.863-.997-1.824c1.352-4.057 4.075-5.505 7.438-7.875l1.982-1.425q2.135-1.533 4.276-3.057c3.258-2.323 6.502-4.667 9.746-7.01q2.412-1.743 4.83-3.48l2.22-1.598 1.98-1.423c1.493-1.048 1.493-1.048 2.528-2.132" />
  <path fill="#25564c"
    d="M84.255 205.511c4.402 1.926 7.328 3.991 10 8 .195 2.262.195 2.262.125 4.688l-.055 2.449-.07 1.863 2.344-.621c5.892-1.524 11.597-2.796 17.656-3.379-.547 4.597-1.308 8.19-4 12-3.018 1.046-6.013 1.203-9.188 1.375l-2.56.207c-2.082.165-4.167.295-6.252.418l-2 8 12 6-3 9c-6.286-.488-11.44-3.384-17-6.125l-3.082-1.497a1711 1711 0 0 1-8.918-4.378l-2.437-1.204a1253 1253 0 0 1-11.563-5.796c1.782-6.126 4.15-11.933 6.75-17.75l.94-2.22c4.063-8.862 10.518-12.97 20.31-11.03" />
  <path fill="#25584d"
    d="m229.255 64.511 1.617 3.652c1.758 3.96 3.54 7.907 5.328 11.852l3.18 7.058 1.629 3.577c2.652 5.91 4.972 11.5 6.246 17.861l-9 3c-3.672-7.116-7.04-14.265-10.02-21.7-.778-2.222-.778-2.222-1.98-3.3l-4 20c-3 1-3 1-4.81.196l-1.983-1.286-2.158-1.377-2.236-1.47-2.272-1.46a668 668 0 0 1-5.541-3.603c1.834 5.825 4.208 11.379 6.61 16.986l.93 2.213c.28.659.56 1.317.85 1.995.61 1.806.61 1.806.61 4.806-5.625 3-5.625 3-9 3q-2.643-5.865-5.28-11.731l-1.789-3.974c-3.003-6.664-5.985-13.338-8.857-20.06l-1.22-2.853c-.854-2.382-.854-2.382-.854-5.382 6.6-3.684 6.6-3.684 11-3 2.702 1.56 5.113 3.45 7.563 5.375q1.967 1.515 3.94 3.023c.577.45 1.152.901 1.745 1.365 1.842 1.3 3.715 2.28 5.752 3.237l.148-1.695q.243-2.584.528-5.164c.233-2.256.411-4.518.554-6.782.84-9.44.84-9.44 3.575-12.14 3.212-1.649 5.577-2.219 9.195-2.219" />
  <path fill="#2a5b52"
    d="M307.068 49.761c4.741 2.603 4.741 2.603 6.187 5.75.55 4.877.554 6.987-1.813 11.313-1.654 2.033-3.242 3.936-5.187 5.687 2.363 2.526 3.665 3.888 7 5l.938-2.375c1.062-2.625 1.062-2.625 2.062-4.625l6 1c1.16 3.48.775 4.342-.438 7.688l-.87 2.45-.692 1.862 6 5c-1.276 2.846-2.415 5.18-5 7-2.754-.212-4.561-.724-6.902-2.195-2.101-1.083-2.101-1.083-4.168.058l-2.055 1.45-2.07 1.425-1.805 1.262c-3.72 1.86-7.94 1.438-12 1-3.688-1.257-6.301-3.234-8.938-6.125-1.619-4.382-2.076-8.284-1.062-12.875 1.987-3.07 4.306-5.54 7-8-1.398-3.545-1.398-3.545-3-7-.577-7.038-.577-7.038 1.688-10.813 5.817-5.503 11.604-6.83 19.125-3.937" />
  <path fill="#295b52"
    d="M511.255 114.511c3.663 3.336 3.663 3.336 5 6-.215 2.94-.614 4.786-1.563 7.5l-.701 2.246c-.878 2.763-1.807 5.507-2.736 8.254q-.953 2.895-1.902 5.789a2394 2394 0 0 1-8.098 24.211c-4.401-.935-6.432-2.148-9-6 .41-2.754.41-2.754 1.188-5.875.789-3.117.789-3.117.812-6.125-2.105-3.18-4.836-4.944-8-7l-2.688-2.5c-2.212-1.755-2.212-1.755-4.875-1.375-2.427.8-2.427.8-4.5 2-1.937.875-1.937.875-3.874.875-3.207-1.555-4.834-4.24-7.062-7 11.592-6.153 23.209-12.237 35-18l2.852-1.418 2.398-1.144 1.953-.942c2.473-.683 3.445-.588 5.796.504" />
  <path fill="#24564c"
    d="M151.617 108.227a152 152 0 0 1 8.103 4.26l3.156 1.774c1.095.618 2.189 1.237 3.316 1.875l3.381 1.903a2879 2879 0 0 1 23.682 13.472c-1.56 3.306-2.685 5.25-6 7-3.877-.237-5.74-.827-9-3-4.122.205-7.025 3.1-10.125 5.563-5.616 4.437-5.616 4.437-7.875 4.437l1 3.625c1.643 6.838 1.643 6.838 1 10.375-3.125 2.64-4.865 4-9 4l-.629-3.426c-2.21-11.668-4.973-23.106-8.172-34.546l-.906-3.337-.827-2.962c-.508-2.977-.404-4.866.534-7.729 4.892-4.336 4.892-4.336 8.362-3.284" />
  <path fill="#e8ebea"
    d="M429.255 302.511c4.329 4.102 7.935 8.586 11.563 13.313l1.83 2.373a2831 2831 0 0 1 5.607 7.314l1.819 2.369q2.536 3.31 5.056 6.631l1.569 2.048c3.556 4.72 3.556 4.72 3.556 6.952-3.99-1.465-7.484-3.377-11.125-5.563-2.986-1.79-5.571-3.336-8.875-4.437l-.688 2.125c-1.629 3.568-3.718 5.94-6.312 8.875-5-4.286-7.222-9.046-10-15l-14 1c2.933-5.4 6.273-10.245 10-15.125l1.578-2.09a425 425 0 0 1 8.422-10.785" />
  <path fill="#f9fbfa"
    d="m373.943 276.386 3.511-.008c2.801.133 2.801.133 3.801 1.133.093 1.504.117 3.013.114 4.52v2.912l-.016 3.166-.005 3.224c-.005 3.413-.018 6.827-.03 10.24q-.008 3.462-.014 6.924a9647 9647 0 0 1-.049 17.014c-3-3.75-3-3.75-3-6l-1.759-.181c-4.551-1.663-6.762-6.855-9.324-10.764a373 373 0 0 0-3.337-4.957l-2.123-3.2c-.64-.962-1.28-1.924-1.938-2.916-1.745-3.426-2.285-6.155-2.519-9.982 1.31-3.93 2.554-7.519 6-10 3.547-1.188 6.97-1.133 10.688-1.125" />
  <path fill="#e9eceb"
    d="M447.255 84.511c4.669 1.706 8.115 3.927 11 8 1.085 5.575.704 10.53-2.125 15.5-3.001 4.091-5.955 5.982-11.012 6.879-4.547.363-7.244-.202-10.8-3.129-2.928-2.741-4.8-5.368-5.364-9.398-.035-6.745 1.279-10.637 5.926-15.727 4.341-2.733 7.38-2.943 12.375-2.125" />
  <path fill="#fcfdfd" d="M110.255 326.511h14v51l-9 1-2 1c-2.73-7.464-3.146-14.582-3.098-22.434l.005-2.66c.005-2.781.018-5.562.03-8.343q.016-9.781.063-19.563" />
  <path fill="#eaeceb"
    d="M119.255 160.511c4.102 1.666 7.072 3.956 10 7.25 1.748 4.807 2.066 9.27.016 14.04-2.191 3.718-3.859 6.182-8.016 7.71-4.803.551-9.399.613-13.938-1.125-3.584-3.26-5.753-5.788-6.484-10.723-.398-8.923-.398-8.923 2.735-12.777 5.244-4.635 8.857-5.365 15.687-4.375" />
  <path fill="#e8ebea"
    d="M576.255 217.511c3.051 5.885 4.777 10.337 4 17-1.788 4.14-4.331 6.432-8 9-4.112 1.37-7.709 1.728-12 1-5.554-2.837-8.092-7.439-10.371-13.047-.629-1.953-.629-1.953-.629-3.953 3.934-1.675 7.873-3.339 11.813-5l3.392-1.445 3.252-1.368 3-1.269c2.543-.918 2.543-.918 5.543-.918" />
  <path fill="#dfd7cb"
    d="M393.255 409.511h3a859 859 0 0 1 7.706 18.831c6.179 15.615 12.48 31.296 20.333 46.157.961 2.012.961 2.012.961 4.012l-3 1c-5.557-10.893-10.668-21.842-14.886-33.32-2.368-6.432-5.028-12.597-8.177-18.68-2.132-4.18-3.568-8.52-4.937-13-1.554 2.332-2.61 4.235-3.695 6.766a526 526 0 0 1-5.547 12.218l-.888 1.9q-1.372 2.934-2.745 5.866l-3.617 7.734-.886 1.895a3563 3563 0 0 0-8.622 18.621h-3c1.383-3.571 2.93-7.008 4.617-10.445l3.258-6.68c5.382-11.085 10.493-22.264 15.43-33.555.471-1.078.943-2.155 1.43-3.265l1.256-2.891c1.009-2.164 1.009-2.164 2.009-3.164" />
  <path fill="#1e5047"
    d="M153.255 130.511c2.51 1.255 2.871 2.5 4 5l5-1-1 4h2l-1 7h-2l1 3.625c1.643 6.838 1.643 6.838 1 10.375-3.125 2.64-4.865 4-9 4q-.976-4.716-1.938-9.438l-.552-2.662c-.868-4.274-1.67-8.55-2.264-12.873l-.295-2.137c.049-1.89.049-1.89 2.049-4.89z" />
  <path fill="#c98d5f" d="m427.255 441.511 3 .5c11.217 1.39 22.796.574 34-.5l-2 6 4 1v3c-9.296 3.781-18.485 4.58-28 1v-2l8 1 1-3c-.941-.182-1.882-.364-2.852-.55l-3.773-.763-3.727-.738c-3.55-.924-6.442-2.188-9.648-3.949z" />
  <path fill="#28594a" d="M392.255 445.511c2 1 2 1 2.778 3.206l.73 2.896.8 3.175.817 3.348.84 3.277c1.361 5.492 2.408 10.437 2.035 16.098-5.22.18-9.073-.03-14-2-.297-6.529.76-12.08 2.438-18.375l.697-2.73c1.695-6.555 1.695-6.555 2.865-8.895" />
  <path fill="#1f4e45" d="M66.255 323.511c2.753 1.796 4.526 3.053 6 6 .486 4.293.462 6.32-2 9.938-3.335 2.292-5.1 2.824-9.063 2.539-3.552-.874-4.948-2.493-6.937-5.477-.698-2.839-.704-5.162 0-8 3.375-4.909 6.152-5.94 12-5" />
  <path fill="#21524a" d="M590.255 323.511c4.6 2.2 4.6 2.2 6 5 .686 6.971.686 6.971-2 11-3.312 2.208-5.15 2.814-9.063 2.547-3.725-1.052-5.063-3.326-6.937-6.547-.625-3.563-.625-3.563 0-7 3.442-4.902 6.124-5.84 12-5" />
  <path fill="#edf2f1" d="M543.255 163.511c8.529 8.055 8.529 8.055 9.5 14.125-.5 2.875-.5 2.875-2.063 5.313-2.437 1.562-2.437 1.562-5.687 1.875-5.441-1.905-8.517-5.62-11.75-10.313l-1-4z" />
  <path fill="#f1f4f3" d="M82.255 215.511c2.375 1.563 2.375 1.563 4 4 0 6.112-2.603 11.46-5 17-4.234-1.31-8.074-2.944-12-5 .52-5.2 2.15-9.637 5-14 3.248-2.166 4.23-2.552 8-2" />
  <path fill="#f2f5f4" d="M376.255 81.511c6.534.415 12.443 1.3 18 5 1.25 2.563 1.25 2.563 1 5-.938 1.813-.938 1.813-3 3-5.968.514-11.233-.505-17-2-1.315-4.158-.344-6.888 1-11" />
  <path fill="#f5f7f7" d="M534.255 289.511c3.159 4.212 3.915 7.29 4.688 12.313l.385 2.39c1.117 7.468 1.227 14.76.927 22.297h-6z" />
  <path fill="#e2e9e7" d="M379.255 63.511c6.323.326 11.555.615 17 4 .125 2.375.125 2.375 0 5-2 2-2 2-4.172 2.266-5.005-.03-9.137-.29-13.828-2.266z" />
  <path fill="#27594f"
    d="M301.255 49.511c2.688-.313 2.688-.313 6 0 2.813 2.438 2.813 2.438 5 5l1 1c.273 5.736.273 5.736 0 8-2 2-2 2-5.5 2.938-3.737.73-3.737.73-5.5 4.062.875-4.875.875-4.875 2-6 .387-3.613.387-3.613-1.313-6.688-1.51-1.174-3.095-2.25-4.687-3.312l1-3h2z" />
  <path fill="#f5f7f6" d="M382.255 326.511h13l-.625 3.563c-.572 4.35.301 7.3 1.625 11.437l-1 2c-4.64-1.381-6.535-3.473-9.313-7.375l-2.113-2.898c-1.574-2.727-1.574-2.727-1.574-6.727" />
  <path fill="#f1f5f4" d="M297.145 77.757c2.473.884 3.918 2.061 5.86 3.817l1.86 1.66 1.39 1.277c-1 3-1 3-2.688 4.188-2.99 1.05-5.165 1.214-8.312.812-1.938-1.563-1.938-1.563-3-4 .188-3.688.188-3.688 1-7 2-1 2-1 3.89-.754" />
  <path fill="#ce8855" d="M351.255 185.511q2.514.428 5 1v2l2.75.813c2.965 1.083 4.867 2.17 7.25 4.187l-1 5c-5.777-.296-10.936-2.917-15-7-.32-2.64-.32-2.64 0-5z" />
  <path fill="#cb8351" d="M372.255 164.511c1.86.145 1.86.145 4 1 3.36 4.091 5.829 8.342 6.375 13.625l-.375 2.375-4 1c-3.882-4.418-6.731-8.907-7.25-14.875.25-2.125.25-2.125 1.25-3.125" />
  <path fill="#e5ddd1" d="m427.255 441.511 3 .5c11.217 1.39 22.796.574 34-.5v2c-9.727 4.323-22.356 4.836-32.563 1.625-3.437-1.625-3.437-1.625-4.437-3.625" />
  <path fill="#cc8d5b" d="M429.255 165.511q2.514.428 5 1c-.316 6.165-3.492 10.173-7 15l-5-1c.58-3.722 1.62-6.493 3.5-9.75l1.344-2.36c1.156-1.89 1.156-1.89 2.156-2.89" />
  <path fill="#e1eae8" d="m502.255 126.511 2 1a957 957 0 0 1-1.375 4.75l-.773 2.672c-.773 2.339-1.688 4.412-2.852 6.578-3.941-1.668-6.79-4.227-10-7 2.383-2.674 4.87-4.152 8.063-5.75l2.66-1.36z" />
  <path fill="#e1e8e7" d="M153.255 120.511c3.623 1.326 6.635 2.943 9.813 5.125l2.394 1.633 1.793 1.242c-1.345 4.036-3.42 4.852-7 7l-3 1q-1.007-3.154-2-6.313l-1.125-3.55c-.875-3.137-.875-3.137-.875-6.137" />
  <path fill="#d19869" d="m455.255 186.511 1 4a350 350 0 0 1-5.188 4.063l-2.917 2.285c-2.895 1.652-2.895 1.652-5.758 1.398l-2.137-.746c.318-3.114.586-4.606 2.89-6.8l2.36-1.512 2.328-1.551c2.691-1.263 4.486-1.36 7.422-1.137" />
  <path fill="#d09466" d="M400.255 157.511h5c1.746 1.746 1.132 3.999 1.137 6.322l-.012 2.115.012 2.104c-.01 5.206-.01 5.206-1.137 7.459l-5-1z" />
  <path fill="#cf8d5e" d="M343.255 214.511h16c1 4 1 4 0 6h-16c-1-4-1-4 0-6" />
  <path fill="#d1915c" d="M447.255 214.511h17v5c-1.756 1.756-4.036 1.132-6.371 1.137l-2.129-.012-2.129.012c-5.244-.01-5.244-.01-6.371-1.137z" />
  <path fill="#e2d4c5" d="M466.255 449.511v2c-9.296 3.781-18.485 4.58-28 1v-2l1.68.016q3.786.029 7.57.047l2.645.025 2.558.01 2.349.016c3.854-.2 7.268-1.223 11.198-1.114" />
  <path fill="#d39d69"
    d="M396.255 409.511q5.81-.037 11.621-.055 2.92-.012 5.84-.033c8.57-.022 17.002.355 25.539 1.088v1c-.927-.01-1.855-.02-2.81-.032q-5.212-.05-10.422-.078-2.246-.015-4.493-.04a879 879 0 0 0-6.494-.045l-3.935-.032c-4.831.285-9.469 1.039-13.846 3.227z" />
  <path fill="#dbe3e2" d="M299.755 56.261c2.5.25 2.5.25 4.5 2.25.37 2.883.42 4.39-1.25 6.813-1.75 1.187-1.75 1.187-5.75 1.187-2.15-3.224-2.383-4.267-2-8 2-2 2-2 4.5-2.25" />
  <path fill="#2f5b53" d="M161.255 153.511h1c.375 2.75.375 2.75 0 6-3.125 2.64-4.865 4-9 4l1-7 3 1 3-1z" />
  <path fill="#256151" d="m266.255 288.511 2 1-2 3h-2l-1 5-2-2v-4c2.375-1.813 2.375-1.813 5-3" />
  <path fill="#22524a" d="m497.255 157.511 2 2c-.375 2.625-.375 2.625-1 5h-4c1.875-5.875 1.875-5.875 3-7" />
  <path fill="#245249" d="m586.255 516.511 2 1c-1.293 2.884-2.66 4.872-5 7-.75-1.75-.75-1.75-1-4 1.938-2.25 1.938-2.25 4-4" />
  <path fill="#e1d2c4" d="M409.255 446.511h2c1.858 3.135 2.201 5.375 2 9-3.938-3.323-3.938-3.323-4.25-6.75z" />
  <path fill="#2c6159" d="M486.255 140.511c3.875.875 3.875.875 5 2 .04 1.666.043 3.334 0 5-2.5-1.813-2.5-1.813-5-4z" />
  <path fill="#c4875d" d="m423.255 470.511 1 2h3v7c-2.523-1.974-2.993-2.967-3.688-6.188z" />
  <path fill="#205348" d="m475.255 177.511 2 1v3l1.938.813c2.062 1.187 2.062 1.187 3.062 4.187-2.86-1.282-5.07-2.492-7-5z" />
  <path fill="#2d5b52" d="M189.255 131.511h4l-2 4h-4v-2h2z" />
</svg>