<svg preserveAspectRatio="none" width="100%" height="100%" overflow="visible" style="display: block;" viewBox="0 0 25 25.625" fill="none" xmlns="http://www.w3.org/2000/svg">
<g id="Container">
<path id="Icon" d="M20.625 25.625C20.0833 25.625 19.5573 25.5833 19.0469 25.5C18.5365 25.4167 18.0417 25.2917 17.5625 25.125L0 18.7188L0.625 16.9375L9.25 20.0938L11.4062 14.5312L6.9375 9.875C6.375 9.29167 6.15104 8.59896 6.26562 7.79688C6.38021 6.99479 6.79167 6.38542 7.5 5.96875L11.8438 3.46875C12.1979 3.26042 12.5573 3.14062 12.9219 3.10938C13.2865 3.07812 13.6458 3.13542 14 3.28125C14.3542 3.40625 14.6615 3.60417 14.9219 3.875C15.1823 4.14583 15.375 4.46875 15.5 4.84375L15.9062 6.1875C16.1771 7.08333 16.6198 7.875 17.2344 8.5625C17.849 9.25 18.5833 9.77083 19.4375 10.125L20.0938 8.125L21.875 8.6875L20.4688 13C18.9271 12.75 17.5625 12.1458 16.375 11.1875C15.1875 10.2292 14.3125 9.04167 13.75 7.625L10.5938 9.4375L14.375 13.75L11.5938 20.9375L15.4688 22.3438L18.0938 14.3125C18.3854 14.4167 18.6771 14.5104 18.9688 14.5938C19.2604 14.6771 19.5625 14.75 19.875 14.8125L17.2188 23L18.1875 23.3438C18.5625 23.4688 18.9531 23.5677 19.3594 23.6406C19.7656 23.7135 20.1875 23.75 20.625 23.75C21.1667 23.75 21.6823 23.6979 22.1719 23.5938C22.6615 23.4896 23.1354 23.3333 23.5938 23.125L25 24.5312C24.3333 24.8854 23.6354 25.1562 22.9062 25.3438C22.1771 25.5312 21.4167 25.625 20.625 25.625V25.625M18.125 5C17.4375 5 16.849 4.75521 16.3594 4.26562C15.8698 3.77604 15.625 3.1875 15.625 2.5C15.625 1.8125 15.8698 1.22396 16.3594 0.734375C16.849 0.244792 17.4375 0 18.125 0C18.8125 0 19.401 0.244792 19.8906 0.734375C20.3802 1.22396 20.625 1.8125 20.625 2.5C20.625 3.1875 20.3802 3.77604 19.8906 4.26562C19.401 4.75521 18.8125 5 18.125 5V5" fill="var(--fill-0, #C26B38)"/>
</g>
</svg>
