<svg xmlns="http://www.w3.org/2000/svg" fill="none" viewBox="0 0 15 17">
  <path fill="currentColor"
    d="M12.5 16.667a2.4 2.4 0 0 1-1.77-.73 2.4 2.4 0 0 1-.73-1.77q0-.126.063-.584l-5.855-3.416a2.47 2.47 0 0 1-1.708.666 2.4 2.4 0 0 1-1.77-.729A2.4 2.4 0 0 1 0 8.334q0-1.042.73-1.771a2.4 2.4 0 0 1 1.77-.73 2.48 2.48 0 0 1 1.708.667l5.855-3.417a1.4 1.4 0 0 1-.053-.28A4 4 0 0 1 10 2.5q0-1.042.73-1.77A2.4 2.4 0 0 1 12.5 0a2.4 2.4 0 0 1 1.77.73q.73.728.73 1.77t-.73 1.77A2.4 2.4 0 0 1 12.5 5a2.48 2.48 0 0 1-1.708-.667L4.938 7.75q.041.146.052.281a4 4 0 0 1 0 .604q-.01.135-.053.282l5.855 3.416a2.47 2.47 0 0 1 1.708-.666 2.4 2.4 0 0 1 1.77.729q.73.729.73 1.77 0 1.042-.73 1.771a2.4 2.4 0 0 1-1.77.73m0-1.667q.354 0 .594-.24t.24-.593a.8.8 0 0 0-.24-.594.8.8 0 0 0-.594-.24.8.8 0 0 0-.594.24.8.8 0 0 0-.24.594q0 .354.24.593.24.24.594.24m-10-5.833q.354 0 .594-.24t.24-.594a.8.8 0 0 0-.24-.593.8.8 0 0 0-.594-.24.8.8 0 0 0-.594.24.8.8 0 0 0-.24.593q0 .354.24.594t.594.24m10-5.834q.354 0 .594-.24.24-.239.24-.593a.8.8 0 0 0-.24-.594.8.8 0 0 0-.594-.24.8.8 0 0 0-.594.24.8.8 0 0 0-.24.594q0 .354.24.594t.594.24" />
</svg>